<?xml version="1.0" standalone="no"?>
<!DOCTYPE svg PUBLIC "-//W3C//DTD SVG 1.1//EN" "http://www.w3.org/Graphics/SVG/1.1/DTD/svg11.dtd" >
<svg xmlns="http://www.w3.org/2000/svg">
<metadata></metadata>
<defs>
<font id="flightcbold" horiz-adv-x="1269" >
<font-face units-per-em="2048" ascent="1638" descent="-410" />
<missing-glyph horiz-adv-x="477" />
<glyph horiz-adv-x="0" />
<glyph horiz-adv-x="682" />
<glyph unicode=" "  horiz-adv-x="477" />
<glyph unicode="&#x09;" horiz-adv-x="477" />
<glyph unicode="&#xa0;" horiz-adv-x="477" />
<glyph unicode="!" horiz-adv-x="741" d="M205 1434h332l-62 -1059h-209zM227 0v266h287v-266h-287z" />
<glyph unicode="#" horiz-adv-x="1142" d="M35 377v201h221l39 204h-186v201h227l67 352h224l-70 -352h152l69 352h223l-71 -352h178v-201h-213l-41 -204h186v-201h-225l-70 -348h-223l70 348h-152l-67 -348h-223l69 348h-184zM477 578h152l43 204h-152z" />
<glyph unicode="$" horiz-adv-x="1482" d="M102 178l162 203q181 -151 344 -158v377l-80 25q-110 34 -184.5 75t-115 91t-57.5 103t-17 120q0 103 33 183t81.5 126.5t113 77t119 41.5t107.5 12v182h174v-182q124 -8 227 -65.5t177 -131.5l-162 -196q-109 124 -242 145v-338l82 -22q58 -16 103 -32.5t100 -49 t91.5 -72t61.5 -101.5t25 -138q0 -85 -26.5 -158t-71.5 -125.5t-105 -92t-125 -62t-135 -31.5v-177h-174v170q-276 12 -506 201zM469 1044q0 -17 5.5 -34t20 -38t47.5 -38t81 -27v297q-64 -7 -109 -47.5t-45 -112.5zM768 233q78 26 118 66t40 104q0 119 -158 158v-328z" />
<glyph unicode="%" horiz-adv-x="1802" d="M115 1065q0 10 1 25.5t7.5 56.5t18.5 77.5t38 81.5t61.5 76.5t93 53.5t128.5 22q165 0 256.5 -112.5t91.5 -280.5q0 -171 -95 -282t-253 -111t-253 111t-95 282zM352 0l873 1434h200l-872 -1434h-201zM360 1065q0 -34 1.5 -55t10.5 -48.5t25 -48.5q27 -34 66 -34 q38 0 65 34q24 30 30.5 65t6.5 87q0 53 -6.5 88.5t-30.5 65.5q-27 34 -65 34q-39 0 -66 -34q-24 -30 -30.5 -65.5t-6.5 -88.5zM983 369q0 168 91.5 280.5t256.5 112.5t256.5 -112.5t91.5 -280.5q0 -171 -95 -282.5t-253 -111.5t-253 111.5t-95 282.5zM1229 369 q0 -34 1.5 -55t10.5 -48.5t25 -48.5q28 -35 65 -35q38 0 66 35q24 30 30.5 65t6.5 87q0 53 -6.5 88t-30.5 65q-28 35 -66 35q-37 0 -65 -35q-24 -30 -30.5 -65t-6.5 -88z" />
<glyph unicode="&#x26;" horiz-adv-x="1626" d="M117 430q0 192 123 307q71 65 157 94v13q-131 110 -131 258q0 89 38.5 159.5t101.5 116.5q109 80 270 80q217 0 328 -88q58 -46 91 -117t33 -153q0 -114 -75 -203q-35 -41 -92.5 -77t-114.5 -56l227 -248q44 68 37 156h293q-11 -204 -127 -365l276 -307h-399l-90 100 q-66 -72 -155.5 -98.5t-200.5 -26.5q-273 0 -418 111q-76 59 -124 149.5t-48 194.5zM432 434q0 -104 80 -168q67 -57 168 -57q136 0 219 80l-334 368q-55 -32 -88 -73q-45 -52 -45 -150zM582 1094q0 -67 80 -140l22 -20q56 23 90 57q39 39 39 101q0 61 -31 90q-33 30 -82 30 q-52 0 -84 -32q-34 -32 -34 -86z" />
<glyph unicode="(" horiz-adv-x="735" d="M92 524q0 320 117 606q82 201 213 377l203 -32q-88 -173 -142 -351q-84 -284 -84 -600t84 -600q53 -176 142 -350l-203 -33q-131 176 -213 377q-117 286 -117 606z" />
<glyph unicode=")" horiz-adv-x="735" d="M92 -426q87 169 141 350q84 284 84 600t-84 600q-55 183 -141 351l203 32q131 -176 213 -377q117 -286 117 -606t-117 -606q-82 -201 -213 -377z" />
<glyph unicode="*" horiz-adv-x="899" d="M51 1077l66 178l231 -67v221h205v-221l229 67l66 -176l-230 -67l146 -181l-168 -112l-145 182l-148 -182l-164 112l144 181z" />
<glyph unicode="+" horiz-adv-x="1136" d="M92 510v233h361v359h231v-359h360v-233h-360v-358h-231v358h-361z" />
<glyph unicode="," horiz-adv-x="471" d="M92 -184v450h287v-266z" />
<glyph unicode="-" horiz-adv-x="604" d="M61 485v226h482v-226h-482z" />
<glyph unicode="." horiz-adv-x="471" d="M92 0v266h287v-266h-287z" />
<glyph unicode="/" horiz-adv-x="937" d="M-92 -381l844 1806h276l-844 -1806h-276z" />
<glyph unicode="0" d="M123 717q0 86 5 155t19.5 151t47 154t81.5 128q54 64 145 108.5t214 44.5t213.5 -44.5t144.5 -108.5q49 -56 81.5 -128t47.5 -154t20 -151.5t5 -154.5t-5 -154.5t-20 -151.5t-47.5 -154t-81.5 -128q-54 -64 -144.5 -109t-213.5 -45t-214 45t-145 109q-49 56 -81.5 128 t-47 154t-19.5 151t-5 155zM446 614q0 -129 11 -208.5t49 -126.5q49 -58 129 -58t129 58q27 33 40.5 91.5t16 108t2.5 135.5v205q0 87 -2.5 136.5t-16 108t-40.5 91.5q-48 57 -129 57t-129 -57q-38 -47 -49 -127t-11 -209v-205z" />
<glyph unicode="1" d="M350 961v303l238 170h260v-1434h-307v1098z" />
<glyph unicode="2" d="M158 0v225l454 516q96 110 123 152q49 71 49 139q0 94 -43 137t-114 43q-56 0 -99 -30q-51 -37 -51 -117q0 -43 15 -90l-302 8q-28 63 -28 131q0 115 59.5 188t143.5 109q49 21 127 34t145 13q101 0 193 -30.5t155 -88.5q123 -111 123 -286q0 -147 -96 -283 q-73 -108 -242 -268l-266 -256h629v-246h-975z" />
<glyph unicode="3" d="M113 190l180 191q67 -70 133 -109q83 -51 201 -51q106 0 159 68q43 51 43 141q0 88 -53 141q-54 56 -151 56h-160v233h143q88 0 142 58q43 47 43 120q0 66 -35 113q-48 61 -137 61q-82 0 -150 -38q-61 -34 -117 -105l-190 178q81 95 196 152q124 59 281 59 q226 0 348 -108q56 -50 91.5 -123t35.5 -154q0 -121 -65 -199q-57 -73 -162 -110v-10q86 -25 149 -82q115 -103 115 -266q0 -94 -38 -176.5t-103 -137.5q-138 -117 -377 -117q-162 0 -303 62q-127 55 -219 153z" />
<glyph unicode="4" d="M123 250v196l487 988h324l-461 -938h244v311h280v-311h154v-246h-154v-250h-307v250h-567z" />
<glyph unicode="5" d="M178 176l199 170q46 -62 92 -88q62 -37 133 -37q100 0 141 70q33 51 33 180q0 138 -35 197q-44 75 -135 75q-62 0 -98 -41q-37 -40 -41 -106h-262l51 838h768v-246h-500l-14 -240q72 41 162 41q171 0 286 -115q66 -66 104 -166.5t38 -215.5q0 -107 -33.5 -206t-91.5 -165 q-128 -146 -371 -146q-135 0 -246 54q-103 53 -180 147z" />
<glyph unicode="6" d="M156 647q0 443 153 635q141 176 381 176q156 0 260 -63q97 -60 156 -160l-221 -152q-31 60 -78 95q-49 34 -117 34q-83 0 -133 -53q-52 -54 -69 -138.5t-15 -156.5q93 66 215 66q192 0 309 -129q56 -62 86.5 -150t30.5 -186q0 -85 -29.5 -179t-85.5 -159 q-61 -70 -155 -111t-199 -41q-121 0 -222.5 55t-160.5 140q-106 152 -106 477zM483 453q0 -116 37 -172q40 -60 119 -60t119 60q37 56 37 172t-37 172q-39 59 -119 59t-119 -59q-37 -56 -37 -172z" />
<glyph unicode="7" d="M170 1188v246h930v-195l-518 -1239h-332l506 1188h-586z" />
<glyph unicode="8" d="M119 418q0 60 20.5 119.5t55.5 103.5q54 68 153 123q-71 41 -110 90q-66 84 -66 201q0 193 154 313q119 90 309 90q200 0 326 -104q137 -114 137 -295q0 -120 -60 -199q-43 -58 -108 -96q93 -41 157 -129q64 -93 64 -219q0 -175 -117 -295q-66 -67 -168.5 -106.5 t-230.5 -39.5q-247 0 -383 129q-65 60 -99 142.5t-34 171.5zM442 422q0 -87 45 -137q53 -62 148 -62q100 0 156 70q36 50 36 121q0 130 -118 186l-86 41q-63 -20 -115 -70q-35 -34 -50.5 -67t-15.5 -82zM487 1061q0 -65 41 -109q29 -29 95 -65l26 -15q50 19 88 62 q45 50 45 121q0 66 -41 110q-43 43 -106 43q-66 0 -107 -41q-41 -36 -41 -106z" />
<glyph unicode="9" d="M156 969q0 86 29 179.5t85 158.5q61 70 155.5 110.5t199.5 40.5q122 0 223 -54.5t160 -139.5q106 -152 106 -478q0 -442 -153 -634q-142 -177 -381 -177q-156 0 -261 64q-96 59 -155 160l221 151q30 -58 78 -94q51 -35 117 -35q83 0 133 53q52 54 69 138.5t15 156.5 q-92 -65 -215 -65q-193 0 -310 129q-55 61 -85.5 149.5t-30.5 186.5zM475 981q0 -116 37 -172q39 -59 119 -59t119 59q36 55 36 172t-36 172q-39 59 -119 59t-119 -59q-37 -56 -37 -172z" />
<glyph unicode=":" horiz-adv-x="471" d="M92 0v266h287v-266h-287zM92 608v266h287v-266h-287z" />
<glyph unicode=";" horiz-adv-x="471" d="M92 -184v450h287v-266zM92 608v266h287v-266h-287z" />
<glyph unicode="&#x3c;" horiz-adv-x="1105" d="M92 510v176l922 344v-246l-559 -186l559 -186v-246z" />
<glyph unicode="=" horiz-adv-x="1136" d="M92 334v233h952v-233h-952zM92 686v234h952v-234h-952z" />
<glyph unicode="&#x3e;" horiz-adv-x="1105" d="M92 166v246l559 186l-559 186v246l922 -344v-176z" />
<glyph unicode="?" horiz-adv-x="1159" d="M101.5 1146.5q7.5 71.5 40.5 127.5t85 94q122 90 353 90q250 0 376 -133q47 -51 73 -118.5t26 -135.5q0 -63 -17.5 -118.5t-50.5 -98.5t-63.5 -72t-71.5 -61q-10 -8 -38.5 -28.5t-38 -29t-30.5 -27.5t-29 -34t-19 -38t-15 -49.5t-4 -59.5v-80h-287v112q0 54 11.5 101 t26 78.5t43.5 65t47.5 51t53.5 46.5q41 35 62.5 55.5t47.5 51.5t37 61.5t11 65.5q0 71 -47 111q-47 38 -119 38q-69 0 -112 -34q-36 -28 -44.5 -79.5t11.5 -97.5h-289q-37 74 -29.5 145.5zM391 0v266h287v-266h-287z" />
<glyph unicode="@" horiz-adv-x="1685" d="M123 717q0 149 55.5 289.5t159.5 242.5q102 100 244 154.5t295 54.5q143 0 277.5 -50.5t234.5 -150.5q174 -174 174 -419q0 -197 -97 -338q-36 -53 -82.5 -89t-92 -51.5t-77.5 -21.5t-61 -6q-86 0 -131 39q-34 27 -45 80h-4q-28 -41 -65 -68t-74 -36.5t-55 -12t-34 -2.5 q-135 0 -215 88q-67 74 -67 205q0 113 41 211q24 59 68.5 118t89.5 93q99 75 253 75q165 0 324 -92l-86 -420q-3 -13 -4 -27t-1 -35.5t9 -35.5t27 -14q27 0 59.5 20t63.5 57.5t52 102t21 141.5q0 192 -110 311q-141 156 -402 156q-204 0 -354 -123q-91 -73 -145 -189.5 t-54 -254.5q0 -123 44.5 -231.5t117.5 -180.5q85 -84 186 -114.5t220 -30.5q185 0 338 94l90 -152q-209 -129 -447 -129q-164 0 -308 65t-243 171q-190 205 -190 506zM700 604q0 -59 21 -80q20 -20 55 -20q40 0 90 28q36 22 68 62l72 344q-46 16 -95 16q-82 0 -131 -63 q-38 -50 -59 -134t-21 -153z" />
<glyph unicode="A" horiz-adv-x="1384" d="M20 0l553 1434h238l553 -1434h-348l-135 344h-435l-129 -344h-297zM526 590h277l-49 135q-2 6 -18 50t-23 64t-20 65.5t-25 94.5h-13q-37 -153 -88 -292z" />
<glyph unicode="B" horiz-adv-x="1374" d="M195 0v1434h485q263 0 385 -91q129 -96 129 -292q0 -103 -45 -183q-47 -82 -137 -114v-6q104 -27 166 -113q63 -88 63 -207q0 -100 -37 -184.5t-94 -132.5q-128 -111 -420 -111h-495zM514 246h195q98 0 147 51q49 49 49 139q0 96 -61 144q-54 43 -170 43h-160v-377z M514 868h162q108 0 155 56q35 43 35 96q0 86 -43 127t-123 41h-186v-320z" />
<glyph unicode="C" horiz-adv-x="1366" d="M123 717q0 379 166 565q156 176 448 176q232 0 355 -78q96 -60 130 -168q16 -50 17 -102q0 -60 -22 -121l-299 -20q5 33 5 61q0 90 -49 135q-51 47 -159 47q-113 0 -176 -75q-80 -96 -80 -359v-119q0 -247 88 -342q35 -38 95 -63t134 -25q122 0 219 43q81 37 142 88 l127 -217q-102 -74 -217 -116q-152 -52 -285 -52q-298 0 -471 195q-168 193 -168 547z" />
<glyph unicode="D" horiz-adv-x="1472" d="M195 0v1434h434q330 0 528 -189q60 -57 100.5 -124.5t59.5 -139t26 -132.5t7 -132q0 -157 -41 -292t-154 -243q-191 -182 -526 -182h-434zM514 246h115q199 0 295 104q90 99 90 309v115q0 96 -18 173.5t-72 135.5q-98 105 -295 105h-115v-942z" />
<glyph unicode="E" horiz-adv-x="1169" d="M195 0v1434h833v-246h-514v-314h514v-245h-514v-383h584v-246h-903z" />
<glyph unicode="F" horiz-adv-x="1097" d="M195 0v1434h831v-246h-512v-334h500v-246h-500v-608h-319z" />
<glyph unicode="G" horiz-adv-x="1441" d="M123 717q0 358 160 547q53 62 115 102.5t129 59.5t124 25.5t127 6.5q227 0 355 -74q59 -34 94 -81t45 -96q6 -34 6 -67q0 -14 -1 -28q-4 -45 -20 -88l-301 -18q8 32 8 59q0 69 -49 106q-25 19 -60 28.5t-58 11t-62 1.5q-113 0 -182 -67q-94 -94 -94 -318v-163 q0 -33 3 -69t11.5 -92.5t31.5 -109t56 -86.5q39 -41 102.5 -63.5t133.5 -22.5q85 0 172 35v244h-224v245h543v-628q-96 -50 -168 -78q-164 -64 -338 -64q-88 0 -166.5 17.5t-133.5 43.5t-103 62.5t-76.5 67.5t-52.5 65q-127 183 -127 486z" />
<glyph unicode="H" horiz-adv-x="1536" d="M195 0v1434h319v-562h508v562h319v-1434h-319v618h-508v-618h-319z" />
<glyph unicode="I" horiz-adv-x="708" d="M195 0v1434h319v-1434h-319z" />
<glyph unicode="J" horiz-adv-x="1017" d="M-10 125l145 197q39 -42 82 -64q66 -37 141 -37q83 0 129 51q48 53 48 146v1016h319v-951q0 -256 -125 -383q-125 -125 -354 -125q-111 0 -219 43q-82 38 -166 107z" />
<glyph unicode="K" horiz-adv-x="1421" d="M195 0v1434h319v-600l467 600h371l-471 -590l510 -844h-367l-367 635l-143 -166v-469h-319z" />
<glyph unicode="L" horiz-adv-x="1130" d="M195 0v1434h319v-1180h586v-254h-905z" />
<glyph unicode="M" horiz-adv-x="1681" d="M195 0v1434h315l334 -656l323 656h320v-1434h-320v483l17 387h-17l-266 -544h-145l-262 544h-15l10 -387v-483h-294z" />
<glyph unicode="N" horiz-adv-x="1556" d="M195 0v1434h290l578 -912h12l-12 439v473h299v-1434h-291l-577 911h-13l13 -518v-393h-299z" />
<glyph unicode="O" horiz-adv-x="1478" d="M123 717q0 368 164 553q166 188 452 188q287 0 453 -188q164 -185 164 -553t-164 -553q-166 -189 -453 -189q-285 0 -452 189q-164 185 -164 553zM459 647q0 -257 82 -348q70 -78 198 -78q129 0 199 78q82 91 82 348v141q0 255 -82 347q-72 77 -199 77q-129 0 -198 -77 q-82 -91 -82 -347v-141z" />
<glyph unicode="P" horiz-adv-x="1333" d="M195 0v1434h505q118 0 214 -18t176 -73q161 -110 161 -327q0 -190 -118 -305q-136 -131 -404 -131h-215v-580h-319zM514 825h182q115 0 168 49q51 48 51 127q0 89 -51 136q-56 51 -164 51h-186v-363z" />
<glyph unicode="Q" horiz-adv-x="1478" d="M123 717q0 368 164 553q166 188 452 188q287 0 453 -188q164 -185 164 -553q0 -100 -9.5 -182.5t-48 -188t-106.5 -182.5q-119 -140 -299 -170v-21q0 -84 102 -84q39 0 86 13q33 9 60 22l88 -186q-54 -28 -113 -47q-91 -27 -188 -27q-155 0 -240 70q-102 82 -102 248v12 q-177 33 -299 170q-164 185 -164 553zM459 647q0 -257 82 -348q70 -78 198 -78q129 0 199 78q82 91 82 348v141q0 255 -82 347q-72 77 -199 77q-129 0 -198 -77q-82 -91 -82 -347v-141z" />
<glyph unicode="R" horiz-adv-x="1398" d="M195 0v1434h507q50 0 80 -1t83 -6.5t91 -16t83 -32t81 -51.5q61 -51 96 -129t35 -172q0 -62 -20.5 -127.5t-59.5 -112.5q-37 -43 -92.5 -73t-113.5 -43v-11q115 -29 176 -163l217 -496h-354l-189 446q-37 89 -63 113q-45 39 -121 39h-117v-598h-319zM514 844h207 q33 0 54 2.5t50.5 15.5t51.5 39q38 42 38 119q0 72 -43 115q-51 53 -151 53h-207v-344z" />
<glyph unicode="S" horiz-adv-x="1265" d="M82 178l162 203q103 -86 207 -127q81 -33 184 -33q122 0 184 66q45 48 45 123q0 61 -37 98q-12 12 -27.5 22t-39 18.5t-40.5 14t-50.5 15t-51.5 14.5l-110 33q-171 52 -252 149q-82 96 -82 240q0 218 123 329q127 115 369 115q111 0 190 -18.5t164 -69.5q71 -43 145 -113 l-161 -196q-61 72 -142 113q-72 38 -174 38q-105 0 -158 -53q-19 -19 -28.5 -41t-11 -35t-1.5 -34q0 -57 29 -88q9 -10 22.5 -18.5t24 -14t30.5 -12.5t29 -9.5t34 -9t32 -8.5l154 -43q162 -46 246 -137q94 -102 94 -256q0 -216 -146 -344q-151 -134 -417 -134 q-165 0 -308 62q-118 50 -231 141z" />
<glyph unicode="T" horiz-adv-x="1132" d="M31 1180v254h1071v-254h-377v-1180h-319v1180h-375z" />
<glyph unicode="U" horiz-adv-x="1474" d="M164 549v885h319v-893q0 -58 1 -84t12.5 -69.5t35.5 -76.5q64 -90 205 -90t205 90q24 33 35.5 76.5t12.5 69.5t1 84v893h320v-885q0 -127 -41 -237.5t-113 -182.5q-70 -70 -181 -112t-239 -42t-239 42t-181 112q-71 71 -112 181.5t-41 238.5z" />
<glyph unicode="V" horiz-adv-x="1294" d="M-10 1434h352l240 -697q46 -138 82 -280h16q28 132 84 303l223 674h318l-533 -1434h-250z" />
<glyph unicode="W" horiz-adv-x="1769" d="M31 1434h346l164 -641l47 -295h16l78 344l98 387h236l186 -731h17l61 389l152 547h307l-400 -1434h-237l-213 664h-8l-213 -664h-238z" />
<glyph unicode="X" horiz-adv-x="1423" d="M20 0l484 754l-445 680h390l165 -289l101 -197l90 185l180 301h346l-426 -664l498 -770h-389l-215 358l-107 203l-106 -192l-219 -369h-347z" />
<glyph unicode="Y" horiz-adv-x="1282" d="M-10 1434h372l224 -422q41 -74 76 -193q35 104 88 205l215 410h327l-491 -838v-596h-320v596z" />
<glyph unicode="Z" horiz-adv-x="1181" d="M72 0v236l633 952h-592v246h972v-234l-634 -954h659v-246h-1038z" />
<glyph unicode="[" horiz-adv-x="671" d="M164 -446v1941h477v-213h-190v-1515h188v-213h-475z" />
<glyph unicode="\" horiz-adv-x="1087" d="M57 1425h277l844 -1806h-277z" />
<glyph unicode="]" horiz-adv-x="671" d="M164 1282v213h477v-1941h-475v213h188v1515h-190z" />
<glyph unicode="_" horiz-adv-x="1417" d="M0 -203h1417v-192h-1417v192z" />
<glyph unicode="a" horiz-adv-x="1208" d="M102 283q0 184 168 260q129 57 389 57h117v100q0 74 -33 109q-39 43 -139 43q-75 0 -115 -23q-51 -28 -51 -86q0 -22 4 -38l-270 6q-21 49 -21 96q1 27 7 51q18 70 80 109q104 69 356 69q264 0 381 -104q37 -33 59 -67.5t30 -79.5t9.5 -68.5t1.5 -79.5v-637h-282v100h-9 q-105 -125 -311 -125q-170 0 -266 78q-105 90 -105 230zM418 299q0 -57 37.5 -95t117.5 -38q117 0 203 96v184h-96q-31 0 -55 -1.5t-57.5 -5.5t-57.5 -14.5t-46.5 -25.5t-34 -41t-11.5 -59z" />
<glyph unicode="b" horiz-adv-x="1226" d="M158 100v1358h299v-479q88 57 219 57q174 0 291 -102q91 -79 124 -184.5t33 -239.5q0 -251 -137 -395q-131 -140 -385 -140q-240 0 -444 125zM457 244q78 -56 161 -56q101 0 150 72q41 61 41 203v96q0 72 -11.5 125t-49.5 90q-49 49 -146 49q-75 0 -145 -51v-528z" />
<glyph unicode="c" horiz-adv-x="1130" d="M102 500q0 313 197 448q126 88 328 88q181 0 286 -65q63 -41 91 -93.5t28 -125.5q0 -57 -18 -99l-289 -20q6 30 6 57q0 68 -35 101q-32 32 -94 32q-81 0 -129 -43q-26 -23 -38.5 -54.5t-14.5 -53t-2 -60.5v-159q0 -41 2 -67.5t16.5 -69.5t42.5 -70q30 -30 78.5 -44 t95.5 -14t131 21q88 25 172 78l93 -183q-79 -56 -177 -88q-112 -41 -251 -41q-98 0 -177 24t-153 81q-189 148 -189 420z" />
<glyph unicode="d" horiz-adv-x="1218" d="M102 506q0 156 48.5 260t119.5 164q60 51 143.5 78.5t170.5 27.5q33 0 58 -4t56.5 -13.5t34.5 -10.5l29 -9v459h299v-1206l22 -277h-149l-80 136q-40 -45 -70 -68q-92 -68 -225 -68q-98 0 -188.5 40t-149.5 108q-62 72 -90.5 175.5t-28.5 207.5zM418 463q0 -54 2 -84 t14.5 -73t38.5 -70q48 -48 115 -48q40 0 71 12t49 35.5t30 48t16.5 59.5t6 58t1.5 56v311q-74 55 -146 55q-86 0 -137 -53q-11 -11 -20 -23t-15 -25.5t-11 -24t-7.5 -26.5t-4.5 -24.5t-2.5 -27.5t-0.5 -25.5v-27v-25.5v-78z" />
<glyph unicode="e" horiz-adv-x="1146" d="M102 520q0 117 25 203t102 168q137 145 355 145q108 0 197.5 -35.5t148.5 -97.5q121 -129 121 -364v-105h-633v-31q0 -87 65 -149q67 -59 183 -59q78 0 157 24q71 22 142 64l100 -185q-84 -54 -174 -84q-115 -39 -242 -39q-261 0 -405 142q-84 83 -113 183.5t-29 219.5z M418 618h325v35q0 87 -32 131q-41 64 -127 64q-74 0 -121 -55q-45 -53 -45 -140v-35z" />
<glyph unicode="f" horiz-adv-x="737" d="M61 805v207h136v49q0 214 133 321q94 76 243 76q141 0 244 -49l23 -10l-92 -213l-27 12q-2 1 -16 7t-22 8.5t-22 7t-28.5 6.5t-28.5 2q-55 0 -84 -35q-24 -30 -24 -92v-90h221v-207h-221v-805h-299v805h-136z" />
<glyph unicode="g" horiz-adv-x="1218" d="M102 506q0 268 129 399q57 59 147.5 95t203.5 36q174 0 319 -114l72 90h88v-946q0 -48 -2.5 -81.5t-12 -85.5t-34 -99t-62.5 -85q-18 -18 -43 -35.5t-70 -39t-113 -35t-149 -13.5q-126 0 -241 35q-46 12 -141 54l79 194q70 -33 129 -49q76 -21 152 -21q146 0 188 82 q21 39 21 117v49q-97 -53 -219 -53q-170 0 -293 111q-88 79 -118 177.5t-30 217.5zM418 440q0 -125 47 -178q49 -53 137 -53q79 0 160 45v506q-35 31 -78 47q-40 16 -94 16q-73 0 -125 -59q-47 -54 -47 -152v-172z" />
<glyph unicode="h" horiz-adv-x="1239" d="M158 0v1458h299v-487q113 65 239 65q187 0 291 -96q38 -35 62.5 -75t33.5 -85t11 -72t2 -71v-637h-299v662q0 29 -1.5 44t-10.5 38t-27 40q-39 39 -115 39q-60 0 -125 -35q-34 -19 -61 -43v-745h-299z" />
<glyph unicode="i" horiz-adv-x="645" d="M72 786v226h415v-1012h-299v786h-116zM188 1247q0 55 41.5 100.5t108.5 45.5q64 0 106.5 -41.5t42.5 -104.5q0 -61 -42 -103t-107 -42q-68 0 -109 46t-41 99z" />
<glyph unicode="j" horiz-adv-x="645" d="M72 786v226h415v-1360h-299v1134h-116zM188 1247q0 55 41.5 100.5t108.5 45.5q64 0 106.5 -41.5t42.5 -104.5q0 -61 -42 -103t-107 -42q-68 0 -109 46t-41 99z" />
<glyph unicode="k" horiz-adv-x="1179" d="M158 0v1458h299v-788l340 342h352l-395 -377l405 -635h-354l-264 432l-84 -76v-356h-299z" />
<glyph unicode="l" horiz-adv-x="614" d="M158 0v1458h299v-1458h-299z" />
<glyph unicode="m" horiz-adv-x="1787" d="M72 799v213h364v-88l23 18q113 94 274 94q159 0 252 -112q95 112 260 112q34 0 65.5 -3t72 -13t75 -26.5t69 -45.5t58 -68t38.5 -97.5t15 -129.5v-653h-299v686q0 71 -34 105q-31 34 -91 34q-71 0 -151 -69v-756h-299v686q0 70 -35 105q-31 34 -90 34q-72 0 -152 -69 v-756h-299v799h-116z" />
<glyph unicode="n" horiz-adv-x="1275" d="M72 799v213h364v-88q53 50 113 75q78 37 182 37q188 0 289 -96q37 -35 60 -75t32 -84.5t11.5 -73t2.5 -70.5v-637h-299v662q0 29 -1.5 44t-10.5 38t-27 40q-42 39 -114 39q-53 0 -115 -32q-27 -14 -72 -50v-741h-299v799h-116z" />
<glyph unicode="o" horiz-adv-x="1183" d="M92 506q0 272 152 412q128 118 348 118t348 -118q152 -140 152 -412t-152 -412q-129 -119 -348 -119t-348 119q-152 140 -152 412zM408 422q0 -29 1 -43.5t5 -44t16.5 -53.5t32.5 -43q53 -50 129 -50t129 50q20 19 32.5 43t16.5 53.5t5 44t1 43.5v168q0 29 -1 43.5t-5 44 t-16.5 53.5t-32.5 43q-52 49 -129 49t-129 -49q-20 -19 -32.5 -43t-16.5 -53.5t-5 -44t-1 -43.5v-168z" />
<glyph unicode="p" horiz-adv-x="1208" d="M158 -401v1413h266v-88q92 112 264 112q192 0 311 -135q73 -83 95 -177t22 -218q0 -58 -5 -106t-19 -109.5t-46 -117t-81 -99.5q-112 -99 -287 -99q-126 0 -221 56v-432h-299zM457 242q74 -54 164 -54q91 0 135 56q45 54 45 182v170q0 120 -41 172q-44 55 -125 55 q-45 0 -86 -18q-47 -19 -92 -64v-499z" />
<glyph unicode="q" horiz-adv-x="1153" d="M102 506q0 123 22 219t95 176q120 135 340 135q95 0 170.5 -25.5t161.5 -88.5l72 90h98v-1413h-299v432q-94 -56 -221 -56q-175 0 -287 99q-152 136 -152 432zM418 426q0 -128 45 -182q44 -56 135 -56q90 0 164 54v499q-33 35 -80.5 58.5t-97.5 23.5q-81 0 -125 -55 q-41 -52 -41 -172v-170z" />
<glyph unicode="r" horiz-adv-x="917" d="M158 0v1012h254v-125l22 31q31 44 92.5 81t153.5 37q118 0 180 -47q78 -61 78 -163v-5l-225 -104q-13 35 -44 55.5t-71 20.5q-69 0 -102 -45q-39 -47 -39 -154v-594h-299z" />
<glyph unicode="s" horiz-adv-x="1044" d="M68 129l129 170q71 -53 155 -82q88 -29 170 -29q84 0 127 39q31 29 31 72q0 32 -21 51q-7 7 -17.5 12t-20.5 8.5t-29.5 7.5t-33.5 6.5t-44.5 7.5t-50.5 9q-197 34 -275 138q-53 74 -53 168q0 78 35 147t92 111q98 71 275 71q154 0 262 -45q85 -37 159 -92l-120 -176 q-45 34 -109 63q-82 37 -162 37q-63 0 -100 -24q-33 -20 -33 -66q0 -31 19 -55q11 -12 33 -21t39.5 -12.5t58.5 -9.5t61 -10q176 -33 254 -103q84 -79 84 -200q0 -66 -27.5 -128.5t-78.5 -107.5q-62 -55 -156 -83t-199 -28q-151 0 -266 45q-93 36 -188 109z" />
<glyph unicode="t" horiz-adv-x="735" d="M61 786v226h148v248h299v-248h197v-226h-197v-786h-299v786h-148z" />
<glyph unicode="u" horiz-adv-x="1159" d="M72 375v637h299v-662q0 -28 1.5 -43.5t10.5 -38.5t27 -41q36 -39 106 -39q65 0 123 41q28 18 72 62v721h299v-1012h-248v117q-51 -57 -113 -94q-86 -48 -211 -48q-160 0 -260 97q-37 36 -60 76t-32 83.5t-11.5 72t-2.5 71.5z" />
<glyph unicode="v" horiz-adv-x="1093" d="M0 1012h315l181 -473q34 -93 65 -215h6q32 135 78 249l176 439h262l-411 -1012h-260z" />
<glyph unicode="w" horiz-adv-x="1572" d="M31 1012h315l135 -430q37 -124 47 -179h9q12 66 55 207l133 402h186l129 -375q39 -115 62 -234h8q13 89 47 203l133 406h262l-352 -1012h-221l-186 514l-5 -2l-182 -512h-223z" />
<glyph unicode="x" horiz-adv-x="1150" d="M0 0l387 528l-354 484h354l109 -162q63 -92 100 -164h8q41 72 101 158l114 168h299l-354 -484l387 -528h-352l-133 205q-62 93 -105 178h-8q-47 -84 -90 -145l-164 -238h-299z" />
<glyph unicode="y" horiz-adv-x="1040" d="M-10 1012h315l207 -512q26 -63 59 -199h9q25 99 77 270l140 441h264l-399 -1141q-15 -44 -48.5 -97.5t-66.5 -86.5q-95 -95 -252 -95q-92 0 -172 43q-72 43 -127 115l151 144q18 -37 54 -62q42 -27 73 -27q69 0 105 48q18 24 39 77l22 68z" />
<glyph unicode="z" horiz-adv-x="974" d="M72 0v182l477 594h-451v236h805v-183l-479 -593h479v-236h-831z" />
<glyph unicode="{" horiz-adv-x="739" d="M102 410v229q48 -3 86.5 18t61.5 58q32 52 35 188q1 36 0 108.5t0 108.5q4 200 82 287q95 103 284 100l27 -190q-72 4 -107.5 -39t-38.5 -131v-47q1 -70 3 -139t2 -99q0 -120 -50 -205q-56 -102 -182 -127v-12q117 -25 178 -117q54 -82 54 -215q0 -28 -1 -63.5t-2 -86 t-2 -87.5v-47q3 -88 38.5 -131t107.5 -39l-27 -191q-188 -3 -284 101q-47 53 -63.5 124t-18.5 162q-1 36 0 108.5t0 108.5q-3 138 -35 189q-23 37 -61.5 58t-86.5 18z" />
<glyph unicode="|" horiz-adv-x="745" d="M238 -453v1926h270v-1926h-270z" />
<glyph unicode="}" horiz-adv-x="739" d="M102 -268q72 -4 107.5 39t38.5 131v47q-4 200 -4 237q0 135 53 215q61 92 178 117v12q-126 25 -182 127q-49 84 -49 205q0 33 1.5 104.5t2.5 133.5v47q-3 88 -38.5 131t-107.5 39l27 190q190 3 285 -100q78 -87 82 -287q1 -36 0 -108.5t0 -108.5q3 -138 34 -188 q23 -37 61.5 -58t86.5 -18v-229q-48 3 -86.5 -18t-61.5 -58q-31 -50 -34 -189q-1 -36 0 -108.5t0 -108.5q-2 -91 -18.5 -162t-63.5 -124q-96 -104 -285 -101z" />
<glyph unicode="~" horiz-adv-x="1241" d="M92 645q52 119 133 191q46 41 91 57t106 16q50 0 96.5 -12t130.5 -47l90 -37q57 -22 109 -22q33 0 65.5 24t77.5 100l158 -90q-60 -108 -102 -155q-87 -97 -224 -97q-100 0 -229 54l-100 43q-55 22 -95 22q-43 0 -82 -39q-46 -46 -71 -98z" />
<glyph unicode="&#xa9;" horiz-adv-x="1667" d="M92 717q0 164 60 297.5t157 228.5q105 104 241.5 159.5t283.5 55.5t283 -55.5t241 -159.5q97 -95 157 -228.5t60 -297.5q0 -307 -217 -524q-97 -97 -229.5 -157.5t-294.5 -60.5t-295 60.5t-230 157.5q-217 217 -217 524zM260 717q0 -161 78.5 -297.5t211 -215.5 t284.5 -79t284 79t210.5 215.5t78.5 297.5q0 159 -78.5 296.5t-210.5 217.5t-284 80q-114 0 -220 -47.5t-183.5 -127.5t-124 -190t-46.5 -229zM457 715q0 33 2 62t11.5 73t25 79t45.5 73.5t71 64t103.5 42.5t140.5 17q61 0 114 -11.5t98.5 -35t72 -66t26.5 -98.5 q0 -37 -14 -81l-221 -15q6 18 6 41q0 56 -32 80.5t-68 24.5q-140 0 -140 -162v-123q0 -31 2.5 -54t12.5 -53t28 -49.5t53 -33t83 -13.5q43 0 106.5 18t124.5 58l70 -139q-144 -99 -326 -99q-144 0 -252 80q-82 61 -112.5 139.5t-30.5 180.5z" />
<glyph unicode="&#xab;" horiz-adv-x="1054" d="M92 645l248 395h242l-238 -395l238 -407h-242zM524 645l248 395h242l-238 -395l238 -407h-242z" />
<glyph unicode="&#xad;" horiz-adv-x="604" d="M61 485v226h482v-226h-482z" />
<glyph unicode="&#xae;" horiz-adv-x="1667" d="M92 717q0 164 60 297.5t157 228.5q105 104 241.5 159.5t283.5 55.5t283 -55.5t241 -159.5q97 -95 157 -228.5t60 -297.5q0 -307 -217 -524q-97 -97 -229.5 -157.5t-294.5 -60.5t-295 60.5t-230 157.5q-217 217 -217 524zM260 717q0 -161 78.5 -297.5t211 -215.5 t284.5 -79t284 79t210.5 215.5t78.5 297.5q0 159 -78.5 296.5t-210.5 217.5t-284 80q-114 0 -220 -47.5t-183.5 -127.5t-124 -190t-46.5 -229zM510 334v774h383q133 0 197 -55q69 -62 69 -160q0 -78 -51 -135q-38 -44 -102 -56v-8q45 -15 61.5 -30t38.5 -60l133 -270h-242 l-98 217q-2 4 -5 11t-4.5 11t-4.5 10t-6.5 10t-8.5 8.5t-12 8.5q-22 13 -55 13h-64v-289h-229zM739 786h109q51 0 73.5 22.5t22.5 51.5q0 36 -25 61t-61 25h-119v-160z" />
<glyph unicode="&#xbb;" horiz-adv-x="1054" d="M92 238l238 407l-238 395h242l248 -395l-248 -407h-242zM524 238l238 407l-238 395h242l248 -395l-248 -407h-242z" />
<glyph unicode="&#x401;" horiz-adv-x="1169" d="M195 0v1434h833v-246h-514v-314h514v-245h-514v-383h584v-246h-903zM264 1683q0 60 41 96t96 36q47 0 90.5 -35t43.5 -97t-39.5 -96.5t-94.5 -34.5q-61 0 -99 37t-38 94zM694 1683q0 49 37.5 90.5t97.5 41.5q57 0 96.5 -38.5t39.5 -93.5q0 -60 -42.5 -95.5t-93.5 -35.5 q-54 0 -94.5 38.5t-40.5 92.5z" />
<glyph unicode="&#x410;" horiz-adv-x="1353" d="M0 0l553 1434h238l552 -1434h-348l-135 344h-434l-129 -344h-297zM506 590h276l-49 135q-2 6 -18 50t-23 64t-20 65.5t-25 94.5h-12q-37 -153 -88 -292z" />
<glyph unicode="&#x411;" horiz-adv-x="1345" d="M195 0v1434h911v-254h-592v-297h102q63 0 103.5 -2t106 -10t123.5 -29t108 -54q47 -32 81.5 -73.5t52 -77t28 -76.5t12.5 -64.5t2 -47.5q0 -97 -42 -183.5t-110 -144.5q-47 -39 -104 -65t-119 -37.5t-110 -15t-107 -3.5h-446zM514 246h188q95 0 150 67q45 52 45 133 q0 92 -68 146q-25 20 -53.5 30.5t-49 12.5t-52.5 2h-160v-391z" />
<glyph unicode="&#x412;" horiz-adv-x="1374" d="M195 0v1434h485q263 0 385 -91q129 -96 129 -292q0 -103 -45 -183q-47 -82 -137 -114v-6q104 -27 166 -113q63 -88 63 -207q0 -100 -37 -184.5t-94 -132.5q-128 -111 -420 -111h-495zM514 246h195q98 0 147 51q49 49 49 139q0 96 -61 144q-54 43 -170 43h-160v-377z M514 868h162q108 0 155 56q35 43 35 96q0 86 -43 127t-123 41h-186v-320z" />
<glyph unicode="&#x413;" horiz-adv-x="1056" d="M195 0v1434h821v-254h-502v-1180h-319z" />
<glyph unicode="&#x414;" horiz-adv-x="1411" d="M31 246h110q53 74 84.5 148t57.5 177q57 230 63 519l6 344h844v-1188h164v-529h-297v283h-735v-283h-297v529zM451 246h426v942h-254l-7 -160q-11 -315 -51 -487q-38 -159 -114 -295z" />
<glyph unicode="&#x415;" horiz-adv-x="1169" d="M195 0v1434h833v-246h-514v-314h514v-245h-514v-383h584v-246h-903z" />
<glyph unicode="&#x416;" horiz-adv-x="1912" d="M20 0q50 50 76 111q7 16 13.5 32t16 44.5l16.5 49.5t24 74.5t29 91.5q31 99 51 150.5t47 89.5q68 94 178 117v8q-108 19 -149 139q-9 25 -23.5 71.5t-17.5 57.5l-31 92q-9 27 -16.5 42t-26 28.5t-45.5 13.5q-30 0 -58 -12l-45 232q69 26 146 26q82 0 141 -26 q37 -17 66 -43.5t48.5 -61t29.5 -58t22 -57.5l70 -213q26 -76 51 -98q30 -27 96 -27h68v560h319v-560h68q66 0 96 27q25 22 51 98l70 213q12 34 22 57.5t29.5 58t48.5 61t66 43.5q59 26 141 26q76 0 145 -26l-45 -232q-28 12 -57 12q-27 0 -45.5 -13.5t-26 -28.5t-16.5 -42 l-31 -92q-4 -11 -18 -57.5t-23 -71.5q-41 -120 -149 -139v-8q110 -23 178 -117q27 -38 47 -89.5t51 -150.5q12 -38 29 -91.5t24 -74.5l16.5 -49.5t16 -44.5t13.5 -32q27 -63 75 -111h-309q-27 2 -50 21t-46 69q-12 27 -22 55.5t-23 74t-19 65.5l-37 125q-36 127 -81 172 q-29 29 -62 38t-78 9h-49v-629h-319v629h-49q-45 0 -78 -9t-62 -38q-46 -46 -82 -172l-37 -125q-32 -116 -65 -195q-21 -47 -43 -67t-51 -23h-310z" />
<glyph unicode="&#x417;" horiz-adv-x="1277" d="M72 166l147 205q74 -70 172 -109q102 -41 203 -41q152 0 217 78q39 48 39 119q0 50 -12.5 87.5t-53.5 67.5q-63 45 -180 45h-127v236h121q105 0 156 61q39 54 39 111q0 90 -39 133q-48 53 -146 53q-28 0 -41 -0.5t-37 -6.5t-45 -19q-36 -21 -54 -55t-16 -65t9 -60 l-283 22q-39 99 -5.5 198t130.5 158q121 74 332 74q272 0 414 -115q127 -104 127 -280q0 -103 -52 -182q-63 -97 -172 -127v-6q60 -12 113.5 -43t87.5 -74q67 -81 70 -203v-14q-3 -192 -164 -318q-93 -72 -196.5 -96.5t-221.5 -24.5q-175 0 -321 62q-108 47 -211 129z" />
<glyph unicode="&#x418;" horiz-adv-x="1591" d="M195 0v1434h319v-574l-12 -366h10l573 940h312v-1434h-320v573l13 367h-11l-573 -940h-311z" />
<glyph unicode="&#x419;" horiz-adv-x="1591" d="M195 0v1434h319v-574l-12 -366h10l573 940h312v-1434h-320v573l13 367h-11l-573 -940h-311zM469 1757q0 38 12 78h209v-47q0 -17 1 -25.5t7.5 -19t20.5 -19.5q30 -18 76 -18q45 0 75 18q20 12 24.5 25.5t4.5 38.5v47h209q14 -70 14 -78q0 -105 -106 -160 q-90 -45 -221 -45q-137 0 -222 45q-104 53 -104 160z" />
<glyph unicode="&#x41a;" horiz-adv-x="1404" d="M195 0v1434h319v-560h141q67 0 95.5 25.5t52.5 99.5l69 213q12 34 22 57.5t29.5 58t48.5 61t66 43.5q59 26 142 26q76 0 145 -26l-45 -232q-28 12 -57 12q-27 0 -45.5 -13.5t-26 -28.5t-16.5 -42l-31 -92q-3 -11 -17.5 -57.5t-23.5 -71.5q-41 -120 -150 -139v-8 q111 -23 179 -117q27 -38 47 -89.5t51 -150.5q15 -48 34.5 -110.5t27 -85.5t17.5 -50t19 -46q26 -61 76 -111h-309q-58 4 -94 86q-13 31 -35.5 99.5t-30.5 99.5l-37 125q-36 126 -82 172q-29 29 -61.5 38t-77.5 9h-123v-629h-319z" />
<glyph unicode="&#x41b;" horiz-adv-x="1363" d="M-20 233q168 22 231 156q43 90 59 301q11 139 23 451l10 293h866v-1434h-319v1180h-258l-8 -265q-11 -351 -43 -491q-40 -186 -131 -289q-137 -160 -390 -160z" />
<glyph unicode="&#x41c;" horiz-adv-x="1681" d="M195 0v1434h315l334 -656l323 656h320v-1434h-320v543l15 327h-13l-268 -544h-145l-262 544h-13l8 -327v-543h-294z" />
<glyph unicode="&#x41d;" horiz-adv-x="1536" d="M195 0v1434h319v-562h508v562h319v-1434h-319v618h-508v-618h-319z" />
<glyph unicode="&#x41e;" horiz-adv-x="1478" d="M123 717q0 368 164 553q166 188 452 188q287 0 453 -188q164 -185 164 -553t-164 -553q-166 -189 -453 -189q-285 0 -452 189q-164 185 -164 553zM459 647q0 -257 82 -348q70 -78 198 -78q129 0 199 78q82 91 82 348v141q0 255 -82 347q-72 77 -199 77q-129 0 -198 -77 q-82 -91 -82 -347v-141z" />
<glyph unicode="&#x41f;" horiz-adv-x="1509" d="M195 0v1434h1120v-1434h-320v1180h-481v-1180h-319z" />
<glyph unicode="&#x420;" horiz-adv-x="1333" d="M195 0v1434h505q118 0 214 -18t176 -73q161 -110 161 -327q0 -190 -118 -305q-136 -131 -404 -131h-215v-580h-319zM514 825h182q115 0 168 49q51 48 51 127q0 89 -51 136q-56 51 -164 51h-186v-363z" />
<glyph unicode="&#x421;" horiz-adv-x="1366" d="M123 717q0 379 166 565q156 176 448 176q232 0 355 -78q96 -60 130.5 -168t-5.5 -223l-299 -20q20 137 -44 196q-51 47 -159 47q-113 0 -176 -75q-80 -96 -80 -359v-119q0 -247 88 -342q35 -38 95 -63t134 -25q122 0 219 43q81 37 142 88l127 -217q-102 -74 -217 -116 q-152 -52 -285 -52q-298 0 -471 195q-168 193 -168 547z" />
<glyph unicode="&#x422;" horiz-adv-x="1132" d="M31 1180v254h1071v-254h-377v-1180h-319v1180h-375z" />
<glyph unicode="&#x423;" horiz-adv-x="1282" d="M20 1434h377l199 -412q44 -90 70 -156.5t47 -160.5l8 2q41 143 106 301l174 426h312l-473 -1106q-4 -8 -14.5 -33t-15 -35.5t-15 -32t-18 -34.5t-18.5 -31t-23.5 -34t-26.5 -32q-61 -68 -130 -94.5t-161 -26.5q-131 0 -262 82l100 217q72 -53 150 -53q42 0 66.5 25.5 t55.5 93.5l27 57z" />
<glyph unicode="&#x424;" horiz-adv-x="1658" d="M92 745q0 302 207 455q77 57 175 86t196 27v174h319v-174q98 2 196 -27t175 -86q207 -153 207 -455q0 -159 -54 -282.5t-192 -206.5q-146 -86 -332 -86v-195h-319v195q-186 0 -332 86q-138 83 -192 206.5t-54 282.5zM410 692q0 -65 17.5 -118t31 -71.5t26.5 -29.5 q33 -30 85 -44.5t100 -12.5v653q-48 2 -101 -15t-86 -50q-26 -25 -42.5 -60.5t-22 -77.5t-7 -65t-1.5 -58v-51zM979 416q48 -2 99.5 12.5t84.5 44.5q13 11 27 29.5t31.5 71.5t17.5 118v51q0 189 -74 261q-33 33 -85.5 50t-100.5 15v-653z" />
<glyph unicode="&#x425;" horiz-adv-x="1423" d="M20 0l484 754l-445 680h390l165 -289l101 -197l90 185l180 301h346l-426 -664l498 -770h-389l-215 358l-107 203l-106 -192l-219 -369h-347z" />
<glyph unicode="&#x426;" horiz-adv-x="1507" d="M195 0v1434h319v-1188h459v1188h319v-1188h164v-529h-297v283h-964z" />
<glyph unicode="&#x427;" horiz-adv-x="1433" d="M143 1004v430h320v-449q0 -94 55 -147q37 -34 83 -44t108 -10q103 0 211 35v615h319v-1434h-319v573q-136 -34 -267 -34q-242 0 -360 88q-48 36 -80 81.5t-46 98.5t-19 97t-5 100z" />
<glyph unicode="&#x428;" horiz-adv-x="1961" d="M195 0v1434h319v-1180h307v1180h320v-1180h307v1180h319v-1434h-1572z" />
<glyph unicode="&#x429;" horiz-adv-x="1982" d="M195 0v1434h319v-1188h307v1188h320v-1188h307v1188h319v-1188h164v-529h-297v283h-1439z" />
<glyph unicode="&#x42a;" horiz-adv-x="1449" d="M10 1180v254h639v-537h92q36 0 68 -1t80.5 -6.5t90 -14t91 -25t88.5 -39t77.5 -57t64 -77t41.5 -101t16 -127.5q0 -52 -11 -101t-35.5 -101.5t-69.5 -95.5t-108 -77.5t-157.5 -54t-210.5 -19.5h-436v1180h-320zM649 246h178q91 0 150 67q45 55 45 133q0 96 -68 156 q-26 22 -54 33.5t-48 13.5t-53 2h-150v-405z" />
<glyph unicode="&#x42b;" horiz-adv-x="1916" d="M195 0v1434h319v-537h92q36 0 68 -1t80.5 -6.5t90 -14t91 -25t88.5 -39t77.5 -57t64 -77t41.5 -101t16 -127.5q0 -52 -11 -101t-35.5 -101.5t-69.5 -95.5t-108 -77.5t-157.5 -54t-210.5 -19.5h-436zM514 246h178q86 0 140.5 56t54.5 144q0 94 -61 149.5t-162 55.5h-150 v-405zM1403 0v1434h319v-1434h-319z" />
<glyph unicode="&#x42c;" horiz-adv-x="1314" d="M195 0v1434h319v-537h92q36 0 68 -1t80.5 -6.5t90 -14t91 -25t88.5 -39t77.5 -57t64 -77t41.5 -101t16 -127.5q0 -52 -11 -101t-35.5 -101.5t-69.5 -95.5t-108 -77.5t-157.5 -54t-210.5 -19.5h-436zM514 246h178q86 0 140.5 56t54.5 144q0 94 -61 149.5t-162 55.5h-150 v-405z" />
<glyph unicode="&#x42d;" horiz-adv-x="1329" d="M82 166l147 205q74 -64 170 -107t191 -43q153 0 233 115q68 96 68 248v26h-373v236h371v37q0 69 -19.5 135t-56.5 110q-42 51 -95.5 67.5t-121.5 16.5q-82 0 -125 -34q-80 -59 -51 -168l-287 22q-38 105 -3.5 199.5t128.5 152.5q120 74 317 74q66 0 123 -6.5t123 -24 t127.5 -53.5t112.5 -90q57 -60 93.5 -133t51 -156t18 -139t3.5 -139q0 -76 -3.5 -129t-16 -130t-44 -147t-80.5 -131q-167 -205 -489 -205q-277 0 -512 191z" />
<glyph unicode="&#x42e;" horiz-adv-x="2025" d="M195 0v1434h319v-562h172q5 74 24.5 148t64.5 155t109 142t168.5 101t233.5 40q287 0 453 -188q164 -185 164 -553t-164 -553q-167 -189 -453 -189q-121 0 -221 35.5t-169 96t-117.5 143.5t-71.5 175t-25 193h-168v-618h-319zM1006 647q0 -258 81 -348q70 -78 199 -78 t199 78q82 91 82 348v141q0 255 -82 347q-72 77 -199 77q-130 0 -199 -77q-81 -90 -81 -347v-141z" />
<glyph unicode="&#x42f;" horiz-adv-x="1441" d="M72 0q48 48 75 111q16 33 74 215q25 78 34.5 105t27.5 67.5t36 66.5q69 96 168 117l-2 8q-54 11 -109.5 38t-94.5 63q-95 88 -95 235q0 196 136 305q55 45 134.5 69t139.5 29t143 5h508v-1434h-319v598h-137q-45 0 -78 -9t-62 -38q-48 -48 -82 -172l-28 -94 q-40 -135 -66 -199q-36 -82 -94 -86h-309zM522 1020q0 -88 53 -131q54 -45 146 -45h207v344h-207q-107 0 -156 -51q-43 -45 -43 -117z" />
<glyph unicode="&#x430;" horiz-adv-x="1208" d="M102 283q0 184 168 260q129 57 389 57h117v100q0 74 -33 109q-39 43 -139 43q-75 0 -115 -23q-51 -28 -51 -86q0 -22 4 -38l-270 6q-33 77 -14.5 146.5t80.5 109.5q104 69 356 69q264 0 381 -104q37 -33 59 -67.5t30 -79.5t9.5 -68.5t1.5 -79.5v-637h-282v100h-9 q-33 -38 -79 -65q-105 -60 -232 -60q-170 0 -266 78q-105 90 -105 230zM418 299q0 -57 37.5 -95t117.5 -38q117 0 203 96v184h-96q-31 0 -55 -1.5t-57.5 -5.5t-57.5 -14.5t-46.5 -25.5t-34 -41t-11.5 -59z" />
<glyph unicode="&#x431;" horiz-adv-x="1198" d="M102 635q0 248 50 405q26 78 63.5 132.5t97.5 95.5q96 65 209 88l158 35q63 13 87 31.5t26 47.5l2 29h258q6 -62 -8.5 -124t-49.5 -103q-71 -84 -280 -125l-191 -39q-107 -20 -164 -82q-63 -71 -63 -176v-29h12q42 86 131 130t197 44q196 0 321 -112q148 -137 148 -377 q0 -252 -139 -391q-66 -66 -162 -103t-199 -37q-104 0 -201.5 38t-162.5 106q-85 91 -112.5 220t-27.5 296zM422 420q0 -134 55 -187q48 -45 129 -45t129 45q56 54 56 187v139q0 43 -1 62t-10.5 50t-29.5 54q-23 26 -62 41.5t-82 15.5q-33 0 -72 -14t-63 -37t-35.5 -58.5 t-12.5 -57.5t-1 -70v-125z" />
<glyph unicode="&#x432;" horiz-adv-x="1198" d="M158 0v1012h522q192 0 285 -64q96 -67 96 -194q0 -98 -51 -156q-44 -47 -105 -66v-4q69 -13 113 -51q78 -66 78 -182q0 -134 -113 -215q-112 -80 -311 -80h-514zM457 205h190q72 0 109 41q24 30 24 67q0 53 -39 84q-37 27 -92 27h-192v-219zM457 629h186q52 0 84 28 q29 26 29 62q0 38 -23 61q-27 27 -86 27h-190v-178z" />
<glyph unicode="&#x433;" horiz-adv-x="907" d="M158 0v1012h739v-226h-440v-786h-299z" />
<glyph unicode="&#x434;" horiz-adv-x="1163" d="M31 213h94q82 106 121 256q35 145 37 391l2 152h719v-799h129v-467h-277v254h-549v-254h-276v467zM412 213h293v586h-164l-2 -97q-4 -152 -39 -290q-27 -105 -88 -199z" />
<glyph unicode="&#x435;" horiz-adv-x="1146" d="M102 520q0 117 25 203t102 168q137 145 355 145q108 0 197.5 -35.5t148.5 -97.5q121 -129 121 -364v-105h-633v-31q0 -87 65 -149q67 -59 183 -59q78 0 157 24q71 22 142 64l100 -185q-84 -54 -174 -84q-115 -39 -242 -39q-261 0 -405 142q-84 83 -113 183.5t-29 219.5z M418 618h325v35q0 87 -32 131q-41 64 -127 64q-74 0 -121 -55q-45 -53 -45 -140v-35z" />
<glyph unicode="&#x436;" horiz-adv-x="1531" d="M20 0q29 27 48.5 61t40.5 95l47 135q36 109 75 160q44 60 131 81v9q-94 25 -122 123l-17 53q-19 62 -33 88q-13 26 -45 26q-30 0 -57 -12l-43 193q66 24 137 24q77 0 127 -28q31 -17 54 -37.5t37.5 -47.5t21 -42.5t16.5 -44.5l41 -115q12 -32 25 -51.5t31 -26.5 t29.5 -8.5t37.5 -1.5h14v379h299v-379h15q26 0 37.5 1.5t29.5 8.5t31 26.5t25 51.5l41 115q10 29 16.5 44.5t21 42.5t37.5 47.5t54 37.5q50 28 127 28q71 0 137 -24l-43 -193q-27 12 -58 12q-32 0 -45 -26q-12 -22 -32 -88l-17 -53q-28 -98 -123 -123v-9q87 -21 131 -81 q41 -54 76 -160l47 -135q37 -108 88 -156h-278q-30 9 -48.5 35t-43.5 94l-56 160l-14 37q-22 56 -57 77q-30 17 -76 17h-23v-420h-299v420h-22q-46 0 -76 -17q-35 -21 -57 -77l-15 -37l-55 -160q-25 -68 -43.5 -94t-48.5 -35h-279z" />
<glyph unicode="&#x437;" horiz-adv-x="1058" d="M61 104l117 181q81 -49 154 -70q94 -27 174 -27q90 0 135 45q31 31 31 80q0 30 -12.5 51.5t-28.5 32t-42 16t-41 6.5t-38 1h-123v188h109q80 0 114 43q27 34 27 80q0 55 -34.5 86t-90.5 31q-53 0 -80 -14q-7 -3 -13.5 -8.5t-16 -19.5t-10 -32t4.5 -47l-278 10 q-29 74 -4 144.5t100 107.5q96 47 297 47q70 0 115.5 -3.5t107.5 -23t107 -55.5q102 -83 102 -209q0 -50 -14 -90t-37.5 -64.5t-46 -39t-47.5 -23.5v-8q78 -12 127 -61q61 -61 61 -156q0 -131 -102 -219q-125 -109 -361 -109q-148 0 -266 35q-110 31 -197 94z" />
<glyph unicode="&#x438;" horiz-adv-x="1306" d="M158 0v1012h299v-437l-11 -188h9l395 625h299v-1012h-299v436l10 189h-8l-395 -625h-299z" />
<glyph unicode="&#x439;" horiz-adv-x="1306" d="M158 0v1012h299v-437l-11 -188h9l395 625h299v-1012h-299v436l10 189h-8l-395 -625h-299zM375 1300q0 45 12 80l178 -6l-2 -8q-4 -16 -4 -35q0 -21 19 -45q26 -26 75 -26q50 0 76 26q19 24 19 45q0 15 -5 35l-2 8l179 6q12 -35 12 -80q0 -49 -21.5 -81.5t-68.5 -57.5 q-82 -41 -189 -41q-106 0 -188 41q-47 25 -68.5 57.5t-21.5 81.5z" />
<glyph unicode="&#x43a;" horiz-adv-x="1148" d="M158 0v1012h299v-379h80q21 0 29.5 0.5t25 4.5t25.5 13t20.5 26.5t21.5 43.5l41 115q10 29 16.5 44.5t21 42.5t37.5 47.5t54 37.5q50 28 127 28q72 0 138 -24l-43 -193q-27 12 -58 12q-32 0 -45 -26q-14 -26 -33 -88l-16 -53q-28 -98 -123 -123v-9q87 -21 131 -81 q9 -12 18 -26.5t15 -25.5t13.5 -29t10.5 -26t10 -28t9 -25l47 -129q4 -10 12.5 -34.5t13 -35.5t14 -29.5t21 -33t27.5 -29.5h-278q-22 10 -38 24t-26.5 34t-15.5 34t-12 37q-53 151 -56 160l-14 37q-22 56 -57 77q-30 17 -76 17h-88v-420h-299z" />
<glyph unicode="&#x43b;" horiz-adv-x="1142" d="M-10 199q39 0 86 12.5t74 34.5q64 51 81 205t17 407l2 154h735v-1012h-299v799h-186l-4 -207q-3 -142 -15 -223q-29 -220 -162 -318q-57 -42 -135 -62.5t-161 -13.5z" />
<glyph unicode="&#x43c;" horiz-adv-x="1357" d="M158 0v1012h288l236 -443l238 443h280v-1012h-299v340l14 248l-204 -379h-95l-204 379l14 -248v-340h-268z" />
<glyph unicode="&#x43d;" horiz-adv-x="1253" d="M158 0v1012h299v-373h340v373h299v-1012h-299v414h-340v-414h-299z" />
<glyph unicode="&#x43e;" horiz-adv-x="1183" d="M92 506q0 272 152 412q128 118 348 118t348 -118q152 -140 152 -412t-152 -412q-129 -119 -348 -119t-348 119q-152 140 -152 412zM408 422q0 -29 1 -43.5t5 -44t16.5 -53.5t32.5 -43q53 -50 129 -50t129 50q20 19 32.5 43t16.5 53.5t5 44t1 43.5v168q0 29 -1 43.5t-5 44 t-16.5 53.5t-32.5 43q-52 49 -129 49t-129 -49q-20 -19 -32.5 -43t-16.5 -53.5t-5 -44t-1 -43.5v-168z" />
<glyph unicode="&#x43f;" horiz-adv-x="1228" d="M158 0v1012h913v-1012h-299v786h-315v-786h-299z" />
<glyph unicode="&#x440;" horiz-adv-x="1208" d="M158 -401v1413h266v-88q92 112 264 112q192 0 311 -135q73 -83 95 -177t22 -218q0 -58 -5 -106t-19 -109.5t-46 -117t-81 -99.5q-112 -99 -287 -99q-126 0 -221 56v-432h-299zM457 242q74 -54 164 -54q91 0 135 56q45 54 45 182v170q0 120 -41 172q-44 55 -125 55 q-50 0 -97.5 -23.5t-80.5 -58.5v-499z" />
<glyph unicode="&#x441;" horiz-adv-x="1130" d="M102 500q0 313 197 448q126 88 328 88q181 0 286 -65q63 -41 91 -93.5t28 -125.5q0 -57 -18 -99l-289 -20q6 30 6 57q0 68 -35 101q-32 32 -94 32q-81 0 -129 -43q-26 -23 -38.5 -54.5t-14.5 -53t-2 -60.5v-159q0 -41 2 -67.5t16.5 -69.5t42.5 -70q30 -30 78.5 -44 t95.5 -14t131 21q88 25 172 78l93 -183q-79 -56 -177 -88q-112 -41 -251 -41q-98 0 -177 24t-153 81q-189 148 -189 420z" />
<glyph unicode="&#x442;" horiz-adv-x="909" d="M20 786v226h869v-226h-285v-786h-299v786h-285z" />
<glyph unicode="&#x443;" horiz-adv-x="1060" d="M0 1012h315l207 -512q28 -69 60 -199h8q20 77 78 270l139 441h264l-399 -1141q-15 -44 -48.5 -97.5t-66.5 -86.5q-95 -95 -252 -95q-92 0 -172 43q-72 43 -127 115l152 144q18 -38 53 -62q42 -27 74 -27q68 0 104 48q18 24 39 77l23 68z" />
<glyph unicode="&#x444;" horiz-adv-x="1589" d="M102 506q0 122 33.5 232.5t97.5 181.5q101 116 271 116q66 0 141 -37v365h299v-365q75 37 141 37q170 0 271 -116q64 -71 97.5 -181.5t33.5 -232.5q0 -115 -28.5 -224.5t-88.5 -179.5q-49 -59 -122.5 -93t-160.5 -34q-85 0 -143 37v-413h-299v413q-58 -37 -143 -37 q-87 0 -160.5 34t-122.5 93q-60 70 -88.5 179.5t-28.5 224.5zM418 440q0 -136 41 -194t108 -58q17 0 45.5 7.5t42.5 17.5v586q-38 24 -88 24q-62 0 -100 -49q-49 -65 -49 -190v-144zM934 213q14 -10 42.5 -17.5t45.5 -7.5q67 0 108 58t41 194v144q0 125 -49 190 q-38 49 -100 49q-50 0 -88 -24v-586z" />
<glyph unicode="&#x445;" horiz-adv-x="1171" d="M10 0l387 528l-354 484h354l109 -162q63 -92 100 -164h8q41 72 101 158l114 168h299l-354 -484l387 -528h-352l-133 205q-62 93 -105 178h-8q-47 -84 -90 -145l-164 -238h-299z" />
<glyph unicode="&#x446;" horiz-adv-x="1275" d="M158 0v1012h299v-799h305v799h299v-799h143v-467h-276v254h-770z" />
<glyph unicode="&#x447;" horiz-adv-x="1150" d="M92 696v316h299v-316q0 -59 31 -90q37 -37 127 -37q75 0 145 21v422h299v-1012h-299v383q-102 -27 -213 -27q-216 0 -311 97q-78 80 -78 243z" />
<glyph unicode="&#x448;" horiz-adv-x="1662" d="M158 0v1012h299v-799h225v799h299v-799h225v799h299v-1012h-1347z" />
<glyph unicode="&#x449;" horiz-adv-x="1720" d="M158 0v1012h299v-799h225v799h299v-799h225v799h299v-799h144v-467h-277v254h-1214z" />
<glyph unicode="&#x44a;" d="M10 786v226h561v-342h213q97 0 172.5 -19.5t122 -50.5t76.5 -75t41.5 -89t11.5 -96q0 -27 -3.5 -53.5t-15 -61.5t-30 -65t-53 -60.5t-80.5 -51.5t-115 -34.5t-153 -13.5h-486v786h-262zM571 213h174q80 0 115 35q33 31 33 82q0 67 -45 102q-34 25 -109 25h-168v-244z" />
<glyph unicode="&#x44b;" horiz-adv-x="1695" d="M158 0v1012h299v-342h213q97 0 172.5 -19.5t122 -50.5t76.5 -75t41.5 -89t11.5 -96q0 -40 -7 -78t-35 -88t-73.5 -86.5t-132.5 -62t-203 -25.5h-485zM457 213h174q79 0 114 35q33 31 33 82q0 67 -45 102q-34 25 -108 25h-168v-244zM1239 0v1012h299v-1012h-299z" />
<glyph unicode="&#x44c;" horiz-adv-x="1155" d="M158 0v1012h299v-342h213q97 0 172.5 -19.5t122 -50.5t76.5 -75t41.5 -89t11.5 -96q0 -40 -7 -78t-35 -88t-73.5 -86.5t-132.5 -62t-203 -25.5h-485zM457 213h174q79 0 114 35q33 31 33 82q0 67 -45 102q-34 25 -108 25h-168v-244z" />
<glyph unicode="&#x44d;" horiz-adv-x="1124" d="M92 109l117 180q69 -46 143 -74q77 -27 164 -27q113 0 170 72q41 49 41 127v33h-283v188h283v31q0 116 -63 168q-50 41 -125 41q-59 0 -103 -21q-23 -12 -33.5 -34.5t-9.5 -40.5t6 -35l-278 10q-30 75 -5 147t101 111q97 51 297 51q232 0 369 -114q91 -76 125 -177 t34 -233q0 -244 -128 -390.5t-379 -146.5q-134 0 -246 37q-93 30 -197 97z" />
<glyph unicode="&#x44e;" horiz-adv-x="1671" d="M158 0v1012h299v-373h153q6 41 16.5 79t31.5 86t56 87t83 73t120.5 53t161.5 19q220 0 348 -118q152 -140 152 -412t-152 -412q-129 -119 -348 -119q-84 0 -154 18t-117.5 47t-84 69.5t-57.5 79.5t-35.5 84.5t-19.5 77t-7 63.5h-147v-414h-299zM895 422q0 -29 1 -43.5 t5 -44t16.5 -53.5t32.5 -43q53 -50 129 -50t129 50q26 25 39.5 63.5t15 61t1.5 59.5v168q0 37 -1.5 59.5t-15 61t-39.5 63.5q-52 49 -129 49t-129 -49q-20 -19 -32.5 -43t-16.5 -53.5t-5 -44t-1 -43.5v-168z" />
<glyph unicode="&#x44f;" horiz-adv-x="1210" d="M72 0q7 6 13.5 13t11.5 13t10.5 15t9 14.5t9 18t8 18t8.5 21.5t8 22.5t9.5 27.5t10.5 30l14 40q35 97 66 148q48 72 131 92v8q-87 15 -150 72q-75 72 -75 176q0 61 29 118.5t73 92.5q94 72 287 72h522v-1012h-299v379h-131q-46 0 -76 -17q-41 -27 -57 -77l-47 -133 q-34 -93 -48 -113q-21 -30 -59 -39h-278zM471 690q0 -39 31 -68.5t106 -29.5h160v207h-172q-66 0 -95.5 -33.5t-29.5 -75.5z" />
<glyph unicode="&#x451;" horiz-adv-x="1146" d="M102 520q0 117 25 203t102 168q137 145 355 145q108 0 197.5 -35.5t148.5 -97.5q121 -127 121 -368v-101h-633v-31q0 -87 65 -149q67 -59 183 -59q78 0 157 24q71 22 142 64l100 -185q-84 -54 -174 -84q-115 -39 -242 -39q-261 0 -405 142q-84 83 -113 183.5t-29 219.5z M238 1272q0 60 41 95.5t96 35.5q47 0 90 -34.5t43 -96.5t-39 -96.5t-94 -34.5q-61 0 -99 37t-38 94zM418 618h325v35q0 87 -32 131q-41 64 -127 64q-74 0 -121 -55q-45 -53 -45 -140v-35zM668 1272q0 49 37.5 90t97.5 41q57 0 96 -38t39 -93q0 -60 -42 -95.5t-93 -35.5 q-54 0 -94.5 38.5t-40.5 92.5z" />
<glyph unicode="&#x2000;" horiz-adv-x="917" />
<glyph unicode="&#x2001;" horiz-adv-x="1835" />
<glyph unicode="&#x2002;" horiz-adv-x="917" />
<glyph unicode="&#x2003;" horiz-adv-x="1835" />
<glyph unicode="&#x2004;" horiz-adv-x="611" />
<glyph unicode="&#x2005;" horiz-adv-x="458" />
<glyph unicode="&#x2006;" horiz-adv-x="305" />
<glyph unicode="&#x2007;" horiz-adv-x="305" />
<glyph unicode="&#x2008;" horiz-adv-x="229" />
<glyph unicode="&#x2009;" horiz-adv-x="367" />
<glyph unicode="&#x200a;" horiz-adv-x="101" />
<glyph unicode="&#x2010;" horiz-adv-x="604" d="M61 485v226h482v-226h-482z" />
<glyph unicode="&#x2011;" horiz-adv-x="604" d="M61 485v226h482v-226h-482z" />
<glyph unicode="&#x2012;" horiz-adv-x="604" d="M61 485v226h482v-226h-482z" />
<glyph unicode="&#x2013;" horiz-adv-x="1126" d="M102 485v222h922v-222h-922z" />
<glyph unicode="&#x2014;" horiz-adv-x="1611" d="M92 498v200h1428v-200h-1428z" />
<glyph unicode="&#x2018;" horiz-adv-x="471" d="M92 1049v266l287 184v-450h-287z" />
<glyph unicode="&#x2019;" horiz-adv-x="450" d="M72 983v451h286v-267z" />
<glyph unicode="&#x201a;" horiz-adv-x="450" d="M72 -184v450h286v-266z" />
<glyph unicode="&#x201c;" horiz-adv-x="876" d="M92 1065v256l275 178v-434h-275zM510 1065v256l274 178v-434h-274z" />
<glyph unicode="&#x201d;" horiz-adv-x="937" d="M123 999v435h274v-256zM541 999v435h274v-256z" />
<glyph unicode="&#x201e;" horiz-adv-x="876" d="M92 -174v434h275v-256zM510 -174v434h274v-256z" />
<glyph unicode="&#x2022;" horiz-adv-x="679" d="M102 668q0 97 70.5 167t167.5 70t167.5 -70t70.5 -167t-70.5 -167.5t-167.5 -70.5t-167.5 70.5t-70.5 167.5z" />
<glyph unicode="&#x2026;" horiz-adv-x="1392" d="M92 0v266h287v-266h-287zM543 0v266h286v-266h-286zM1014 0v266h286v-266h-286z" />
<glyph unicode="&#x202f;" horiz-adv-x="367" />
<glyph unicode="&#x2039;" horiz-adv-x="622" d="M92 645l248 395h242l-238 -395l238 -407h-242z" />
<glyph unicode="&#x203a;" horiz-adv-x="622" d="M92 238l238 407l-238 395h242l248 -395l-248 -407h-242z" />
<glyph unicode="&#x205f;" horiz-adv-x="458" />
<glyph unicode="&#x2122;" horiz-adv-x="1716" d="M51 1257v177h676v-177h-221v-604h-234v604h-221zM815 653v781h229l177 -322l165 322h248v-781h-237v434l-135 -253h-99l-139 253v-434h-209z" />
<glyph unicode="&#x25fc;" horiz-adv-x="1013" d="M0 0v1014h1014v-1014h-1014z" />
</font>
</defs>
</svg>
